<svg xmlns="http://www.w3.org/2000/svg" width="61" height="61" viewBox="0 0 61 61">
  <path id="Icon_awesome-github-square" data-name="Icon awesome-github-square" d="M54.464,2.25H6.536A6.537,6.537,0,0,0,0,8.786V56.714A6.537,6.537,0,0,0,6.536,63.25H54.464A6.537,6.537,0,0,0,61,56.714V8.786A6.537,6.537,0,0,0,54.464,2.25ZM37.757,54.495c-1.144.2-1.566-.5-1.566-1.089,0-.735.027-4.493.027-7.53A5.305,5.305,0,0,0,34.68,41.7c5.038-.558,10.348-1.253,10.348-9.953,0-2.478-.885-3.717-2.328-5.31a8.516,8.516,0,0,0-.231-6.127c-1.893-.585-6.223,2.437-6.223,2.437a21.42,21.42,0,0,0-11.329,0s-4.33-3.023-6.223-2.437a8.45,8.45,0,0,0-.231,6.127,6.838,6.838,0,0,0-2.124,5.31c0,8.66,5.079,9.4,10.117,9.953a4.935,4.935,0,0,0-1.443,3.036c-1.294.585-4.6,1.593-6.577-1.893a4.744,4.744,0,0,0-3.472-2.328c-2.206-.027-.15,1.389-.15,1.389,1.471.681,2.505,3.3,2.505,3.3,1.321,4.044,7.639,2.682,7.639,2.682,0,1.893.027,4.97.027,5.528,0,.585-.408,1.294-1.566,1.089A22.59,22.59,0,0,1,8.142,32.941,21.608,21.608,0,0,1,30.2,10.951c12.5,0,22.63,9.49,22.63,21.99A22.382,22.382,0,0,1,37.757,54.495ZM24.4,46.175c-.259.054-.5-.054-.531-.231-.027-.2.15-.381.408-.436.259-.027.5.082.531.259S24.672,46.121,24.4,46.175Zm-1.294-.123c0,.177-.2.327-.477.327-.3.027-.5-.123-.5-.327,0-.177.2-.327.477-.327C22.861,45.7,23.106,45.849,23.106,46.053Zm-1.865-.15c-.054.177-.327.259-.558.177-.259-.054-.436-.259-.381-.436s.327-.259.558-.2C21.132,45.522,21.309,45.726,21.241,45.9Zm-1.675-.735c-.123.15-.381.123-.585-.082-.2-.177-.259-.436-.123-.558.123-.15.381-.123.585.082C19.621,44.787,19.689,45.059,19.566,45.168Zm-1.239-1.239c-.123.082-.354,0-.5-.2s-.15-.436,0-.531c.15-.123.381-.027.5.177A.4.4,0,0,1,18.327,43.929Zm-.885-1.321c-.123.123-.327.054-.477-.082-.15-.177-.177-.381-.054-.477.123-.123.327-.054.477.082C17.538,42.308,17.565,42.513,17.442,42.608ZM16.53,41.6a.257.257,0,0,1-.381.054c-.177-.082-.259-.231-.2-.354a.32.32,0,0,1,.381-.054C16.5,41.342,16.584,41.492,16.53,41.6Z" transform="translate(0 -2.25)"/>
</svg>
