<svg xmlns="http://www.w3.org/2000/svg" width="61" height="61" viewBox="0 0 61 61">
  <path id="Icon_awesome-linkedin" data-name="Icon awesome-linkedin" d="M56.643,2.25H4.344A4.376,4.376,0,0,0,0,6.648v52.2a4.376,4.376,0,0,0,4.344,4.4h52.3A4.388,4.388,0,0,0,61,58.852V6.648A4.388,4.388,0,0,0,56.643,2.25ZM18.436,54.536H9.4V25.425H18.45V54.536ZM13.916,21.449a5.242,5.242,0,1,1,5.242-5.242,5.244,5.244,0,0,1-5.242,5.242ZM52.327,54.536H43.285V40.375c0-3.377-.068-7.72-4.7-7.72-4.711,0-5.433,3.676-5.433,7.475V54.536H24.114V25.425h8.673V29.4h.123a9.523,9.523,0,0,1,8.565-4.7c9.15,0,10.852,6.032,10.852,13.875Z" transform="translate(0 -2.25)"/>
</svg>
