<svg width="228" height="56" viewBox="0 0 228 56" fill="none" xmlns="http://www.w3.org/2000/svg">
<g clip-path="url(#clip0_1_2182)">
<path d="M102.751 26.662L112.94 0.765625H115.719L125.626 26.662H123.109L120.129 18.5266H108.329L105.268 26.662H102.751ZM109.154 16.4323H119.303L114.249 2.81961L109.154 16.4323Z" fill="white"/>
<path d="M143.186 0.725586H145.361V26.6622H143.186V23.4H143.106C141.857 25.8567 138.998 27.1858 136.621 27.1858C130.621 27.1858 128.204 22.9167 128.204 17.3991C128.204 12.1635 130.822 7.53194 136.501 7.53194C139.118 7.53194 141.777 8.74017 143.146 11.0358V0.725586H143.186ZM136.903 9.46511C132.433 9.46511 130.339 13.2509 130.54 17.9227C130.58 22.5945 133.279 25.2123 136.903 25.2123C140.971 25.2123 143.186 21.7488 143.186 17.2783C143.186 13.0495 140.83 9.46511 136.903 9.46511Z" fill="white"/>
<path d="M148.824 8.01514H151.16L157.201 24.004L163.242 8.01514H165.578L158.329 26.6621H155.913L148.824 8.01514Z" fill="white"/>
<path d="M169.022 3.94753V0.725586H171.398V3.94753H169.022ZM169.143 26.6622V8.01523H171.317V26.6622H169.143Z" fill="white"/>
<path d="M178.023 20.822C178.708 24.0439 180.359 25.2119 183.581 25.2119C186.722 25.2119 188.172 23.5606 188.172 21.7483C188.172 16.3516 176.211 20.1776 176.211 12.8074C176.211 9.70629 178.627 7.49121 182.776 7.49121C186.803 7.49121 189.421 9.14246 189.985 13.3713H187.77C187.367 10.5118 185.434 9.46465 182.735 9.46465C180.037 9.46465 178.506 10.7534 178.506 12.6866C178.506 17.7612 190.468 14.5795 190.468 21.7483C190.468 25.2924 187.246 27.1853 182.856 27.1853C178.466 27.1853 175.929 24.3661 175.768 20.8623H178.023V20.822Z" fill="white"/>
<path d="M221.278 26.662H219.103V8.01503H221.278V11.5189H221.358C222.526 8.53859 224.298 7.53174 227.44 7.53174V9.86765C222.566 9.74682 221.278 13.3715 221.278 17.5198V26.662Z" fill="white"/>
<path d="M23.2292 5.19599H17.8325C17.7371 5.19653 17.6426 5.17814 17.5544 5.1419C17.4662 5.10566 17.3861 5.05228 17.3187 4.98486C17.2512 4.91743 17.1979 4.8373 17.1616 4.74911C17.1254 4.66091 17.107 4.5664 17.1075 4.47105V0.806099C17.1035 0.709836 17.1196 0.613788 17.1546 0.524033C17.1896 0.434278 17.2429 0.352761 17.311 0.284634C17.3791 0.216508 17.4606 0.163252 17.5504 0.128229C17.6402 0.0932058 17.7362 0.0771808 17.8325 0.0811614H34.5866C34.6819 0.0806273 34.7764 0.0990107 34.8646 0.135253C34.9528 0.171495 35.0329 0.224875 35.1003 0.292298C35.1678 0.359721 35.2212 0.439852 35.2574 0.528046C35.2936 0.616241 35.312 0.71075 35.3115 0.806099V4.51133C35.3054 4.70168 35.2271 4.88257 35.0925 5.01724C34.9578 5.1519 34.7769 5.23022 34.5866 5.23627H29.1898V25.8164C29.1838 26.0068 29.1054 26.1877 28.9708 26.3223C28.8361 26.457 28.6552 26.5353 28.4649 26.5414H23.9139C23.7235 26.5353 23.5426 26.457 23.408 26.3223C23.2733 26.1877 23.195 26.0068 23.1889 25.8164V5.19599H23.2292Z" fill="white"/>
<path d="M36.9222 0.806004C36.9283 0.615657 37.0066 0.434756 37.1413 0.300093C37.2759 0.16543 37.4568 0.0871133 37.6472 0.081066H42.2787C42.3741 0.0805318 42.4686 0.0989152 42.5568 0.135158C42.645 0.1714 42.7251 0.224779 42.7925 0.292202C42.8599 0.359626 42.9133 0.439756 42.9496 0.527951C42.9858 0.616145 43.0042 0.710655 43.0037 0.806004V16.1102C43.0037 17.3493 43.4959 18.5376 44.372 19.4137C45.2481 20.2898 46.4364 20.782 47.6755 20.782C48.9145 20.782 50.1028 20.2898 50.9789 19.4137C51.8551 18.5376 52.3473 17.3493 52.3473 16.1102V0.806004C52.3467 0.710655 52.3651 0.616145 52.4014 0.527951C52.4376 0.439756 52.491 0.359626 52.5584 0.292202C52.6258 0.224779 52.706 0.1714 52.7942 0.135158C52.8824 0.0989152 52.9769 0.0805318 53.0722 0.081066H57.7038C57.8941 0.0871133 58.075 0.16543 58.2097 0.300093C58.3443 0.434756 58.4226 0.615657 58.4287 0.806004V16.3921C58.4287 22.1111 53.5958 26.9037 47.6352 26.9037C41.6746 26.9037 36.9222 22.1514 36.9222 16.3921V0.806004Z" fill="white"/>
<path d="M60.06 0.805993C60.0567 0.619637 60.1266 0.439396 60.2545 0.303892C60.3825 0.168387 60.5585 0.0883966 60.7447 0.0810547H69.9675C73.471 0.0810547 76.831 1.47281 79.3084 3.95016C81.7857 6.42751 83.1775 9.78752 83.1775 13.291C83.1775 16.7945 81.7857 20.1545 79.3084 22.6319C76.831 25.1092 73.471 26.501 69.9675 26.501H60.7447C60.5585 26.4936 60.3825 26.4136 60.2545 26.2781C60.1266 26.1426 60.0567 25.9624 60.06 25.776V0.805993ZM69.5648 20.9028C73.8338 20.9028 76.935 17.5601 76.935 13.2507C76.935 8.94139 73.8338 5.6389 69.5648 5.6389H65.9401V20.9431H69.5648V20.9028Z" fill="white"/>
<path d="M87.7282 13.7741L79.3512 1.16825C79.2803 1.06125 79.2402 0.936836 79.2352 0.808594C79.2302 0.680351 79.2605 0.553204 79.3229 0.441015C79.3852 0.328826 79.4771 0.235907 79.5887 0.172395C79.7002 0.108882 79.827 0.0772143 79.9553 0.0808473H84.8687C84.9869 0.0868792 85.1023 0.118877 85.2067 0.174564C85.3111 0.230251 85.402 0.30826 85.4729 0.403043L90.7085 8.1357L95.9442 0.403043C96.0086 0.30188 96.0981 0.219069 96.2039 0.162624C96.3097 0.106178 96.4284 0.0780098 96.5483 0.0808473H101.462C101.59 0.0772143 101.717 0.108882 101.828 0.172395C101.94 0.235907 102.032 0.328826 102.094 0.441015C102.156 0.553204 102.187 0.680351 102.182 0.808594C102.177 0.936836 102.137 1.06125 102.066 1.16825L93.6083 13.7338V25.7758C93.6022 25.9662 93.5239 26.1471 93.3892 26.2817C93.2546 26.4164 93.0737 26.4947 92.8833 26.5008H88.3726C88.2773 26.5013 88.1827 26.4829 88.0946 26.4467C88.0064 26.4104 87.9262 26.3571 87.8588 26.2896C87.7914 26.2222 87.738 26.1421 87.7018 26.0539C87.6655 25.9657 87.6471 25.8712 87.6477 25.7758V13.7741H87.7282Z" fill="white"/>
<path d="M15.3151 0.0810547H9.95862C4.23967 0.161603 1.3802 3.90711 1.3802 7.61234C1.3802 12.1231 5.4479 14.6603 8.71011 15.9491C11.2877 16.956 12.6167 18.1642 12.6167 19.7752C12.6167 21.1042 11.5293 22.0305 9.99889 22.0305H0.735809C0.651035 22.0245 0.565916 22.0355 0.48541 22.0627C0.404903 22.0899 0.330619 22.1329 0.266893 22.1891C0.203167 22.2453 0.15127 22.3137 0.11423 22.3902C0.0771889 22.4667 0.0557457 22.5498 0.0511475 22.6346V26.6218C0.0552364 26.7914 0.124442 26.9529 0.244413 27.0729C0.364384 27.1929 0.525922 27.2621 0.695538 27.2662H10.2808C15.8387 27.2662 19.1814 23.3596 19.1814 19.453C19.1814 14.3381 14.5096 12.0022 11.5696 10.8343C8.62957 9.66633 7.46162 8.57892 7.46162 7.16932C7.46162 6.16246 8.42819 5.31671 9.71697 5.23616H15.3554C15.5143 5.23208 15.6656 5.16712 15.778 5.0547C15.8904 4.94228 15.9554 4.79098 15.9595 4.63205V0.725439C15.9554 0.555823 15.8862 0.394285 15.7662 0.274314C15.6463 0.154343 15.4847 0.0851436 15.3151 0.0810547Z" fill="white"/>
<path d="M200.577 16.7548C200.426 16.7476 200.277 16.7205 200.134 16.6742C200.001 16.617 199.88 16.5338 199.78 16.4297C199.679 16.3255 199.6 16.2023 199.548 16.0674C199.496 15.9325 199.47 15.7884 199.474 15.6437C199.478 15.499 199.51 15.3564 199.57 15.2244C199.921 14.3908 200.433 13.6346 201.076 12.9992C201.72 12.3637 202.482 11.8614 203.32 11.521C204.158 11.1805 205.055 11.0087 205.96 11.0153C206.864 11.0219 207.758 11.2068 208.591 11.5594C208.723 11.6176 208.843 11.7012 208.943 11.8056C209.043 11.9099 209.121 12.0329 209.173 12.1676C209.226 12.3022 209.251 12.4458 209.248 12.5903C209.245 12.7347 209.213 12.8771 209.155 13.0093C209.097 13.1415 209.013 13.261 208.909 13.3609C208.804 13.4608 208.681 13.5391 208.547 13.5915C208.412 13.6438 208.269 13.6692 208.124 13.666C207.98 13.6629 207.837 13.6313 207.705 13.5731C206.556 13.0923 205.264 13.0849 204.11 13.5526C202.956 14.0203 202.033 14.9252 201.543 16.0701C201.482 16.276 201.354 16.4555 201.178 16.5796C201.003 16.7038 200.791 16.7655 200.577 16.7548Z" fill="#F65661"/>
<path d="M212.981 24.8899C214.91 22.8849 215.976 20.2033 215.949 17.4212C215.922 14.6391 214.805 11.9785 212.838 10.0112C210.87 8.04388 208.21 6.92677 205.428 6.89991C202.646 6.87305 199.964 7.93859 197.959 9.86757C196.298 11.5155 195.237 13.6722 194.946 15.9934C194.654 18.3147 195.147 20.6669 196.348 22.6748C196.393 22.7591 196.409 22.8556 196.395 22.9499C196.38 23.0443 196.336 23.1314 196.268 23.1984L190.871 28.5951C189.783 29.6825 189.542 31.1727 190.508 32.1392L190.669 32.3003C191.636 33.2669 193.126 32.985 194.214 31.9379L199.63 26.5411C199.697 26.4731 199.785 26.4285 199.879 26.414C199.973 26.3995 200.07 26.4158 200.154 26.4606C202.16 27.6715 204.513 28.1748 206.839 27.8901C209.164 27.6053 211.327 26.5489 212.981 24.8899ZM199.933 22.9164C198.837 21.8211 198.09 20.4253 197.788 18.9057C197.485 17.3861 197.64 15.8109 198.233 14.3793C198.826 12.9477 199.83 11.7241 201.118 10.8632C202.406 10.0023 203.921 9.54278 205.47 9.54278C207.02 9.54278 208.534 10.0023 209.823 10.8632C211.111 11.7241 212.115 12.9477 212.708 14.3793C213.3 15.8109 213.455 17.3861 213.153 18.9057C212.85 20.4253 212.104 21.8211 211.008 22.9164C210.281 23.6444 209.418 24.2219 208.468 24.6159C207.518 25.01 206.499 25.2128 205.47 25.2128C204.442 25.2128 203.423 25.01 202.473 24.6159C201.523 24.2219 200.659 23.6444 199.933 22.9164Z" fill="#F65661"/>
<path d="M155.18 47.0893C155.691 47.367 156.11 47.7866 156.388 48.2975C156.671 48.8424 156.819 49.4474 156.819 50.0615C156.819 50.6756 156.671 51.2806 156.388 51.8255C156.108 52.3348 155.689 52.7539 155.18 53.0338C154.661 53.325 154.075 53.4737 153.48 53.4647C152.958 53.4742 152.441 53.3523 151.978 53.1103C151.533 52.8723 151.161 52.5172 150.903 52.0833V53.4043H150.041V43.9761H150.943V47.9834C151.205 47.5656 151.575 47.2262 152.014 47.0007C152.468 46.7705 152.971 46.6544 153.48 46.6624C154.074 46.6559 154.659 46.803 155.18 47.0893ZM154.684 52.3249C155.063 52.1078 155.373 51.7881 155.578 51.4026C155.79 50.9816 155.9 50.5167 155.9 50.0454C155.9 49.574 155.79 49.1092 155.578 48.6882C155.373 48.3038 155.063 47.9854 154.684 47.7699C154.294 47.5584 153.857 47.4476 153.414 47.4476C152.97 47.4476 152.533 47.5584 152.143 47.7699C151.765 47.9857 151.457 48.3041 151.253 48.6882C151.041 49.1092 150.931 49.574 150.931 50.0454C150.931 50.5167 151.041 50.9816 151.253 51.4026C151.457 51.7878 151.765 52.1075 152.143 52.3249C152.533 52.5364 152.97 52.6472 153.414 52.6472C153.857 52.6472 154.294 52.5364 154.684 52.3249Z" fill="white"/>
<path d="M164.056 46.7144L160.721 54.1852C160.528 54.7027 160.205 55.1617 159.783 55.5183C159.412 55.7895 158.962 55.931 158.502 55.9211C158.195 55.9247 157.889 55.8728 157.6 55.768C157.329 55.6715 157.083 55.5161 156.879 55.3129L157.282 54.6403C157.438 54.8025 157.626 54.9311 157.834 55.0184C158.041 55.1056 158.265 55.1497 158.49 55.1478C158.772 55.1554 159.048 55.0658 159.271 54.8941C159.535 54.6567 159.74 54.3618 159.871 54.0322L160.165 53.3838L157.185 46.7264H158.148L160.657 52.3971L163.17 46.7264L164.056 46.7144Z" fill="white"/>
<path d="M223.73 39.2275H225.897V42.5099H227.238V44.2054H225.897V50.2023C225.897 51.2051 226.28 51.2695 227.238 51.2695V53.3235H226.344C224.391 53.3235 223.73 51.9381 223.73 50.7863V39.2275Z" fill="white"/>
<path d="M169.521 38.144H171.692V50.1417C171.692 50.9472 171.926 51.1889 172.751 51.2735V53.3234C170.738 53.3234 169.529 52.8119 169.529 50.2948L169.521 38.144Z" fill="white"/>
<path d="M173.351 38.144H175.518V40.3189L173.351 41.8936V38.144Z" fill="white"/>
<path d="M177.177 38.144H183.641V40.19H179.348V44.2093H183.641V46.2754H179.348V51.1446H183.641V53.3194H177.177V38.144Z" fill="white"/>
<path d="M184.81 39.2275H186.98V50.2023C186.98 51.2051 187.363 51.2695 188.317 51.2695V53.3235H187.427C185.47 53.3235 184.81 51.9381 184.81 50.7863V39.2275Z" fill="white"/>
<path d="M201.132 52.3367C200.581 52.9569 200.158 53.4483 199.07 53.4483C198.69 53.4789 198.309 53.3986 197.974 53.217C197.639 53.0354 197.363 52.7604 197.181 52.4253C196.924 51.9541 196.819 51.2936 196.819 50.1015V45.9854C196.819 44.4309 196.883 43.8106 197.157 43.3636C197.356 43.0355 197.643 42.7699 197.986 42.5969C198.328 42.4238 198.712 42.3504 199.095 42.3849C199.497 42.3795 199.895 42.4787 200.248 42.6729C200.601 42.867 200.897 43.1494 201.108 43.4925H201.149V38.144H203.319V53.3234H201.149L201.132 52.3367ZM198.986 49.8034C198.986 50.6734 199.304 51.2735 200.049 51.2735C200.71 51.2735 201.132 50.7177 201.132 49.9283V45.7317C201.143 45.5826 201.123 45.4329 201.073 45.2918C201.023 45.1508 200.946 45.0213 200.844 44.9116C200.743 44.8018 200.62 44.7139 200.483 44.6534C200.346 44.5929 200.199 44.561 200.049 44.5597C199.219 44.5597 198.986 45.1558 198.986 45.8364V49.8034Z" fill="white"/>
<path d="M206.739 42.5142H204.572V53.3197H206.739V42.5142Z" fill="white"/>
<path d="M212.252 52.212H212.212C211.636 52.9974 211.169 53.4484 210.126 53.4484C209.083 53.4484 207.79 52.9571 207.79 50.5688C207.79 48.096 208.491 46.9039 211.213 46.9039C211.511 46.9039 211.809 46.9441 212.252 46.9683V45.8366C212.252 45.1117 211.978 44.5599 211.169 44.5599C210.867 44.5638 210.577 44.6756 210.351 44.8751C210.125 45.0747 209.978 45.3486 209.936 45.6473H207.83C207.859 44.7715 208.207 43.9364 208.809 43.2993C209.122 42.9976 209.491 42.7613 209.897 42.6043C210.302 42.4473 210.734 42.3728 211.169 42.3851C212.977 42.3851 214.423 43.5369 214.423 45.7963V53.3236H212.252V52.212ZM212.252 48.6719C212.056 48.6327 211.856 48.6111 211.656 48.6075C210.722 48.6075 209.957 48.9901 209.957 50.1419C209.957 50.9756 210.383 51.5274 211.084 51.5274C211.785 51.5274 212.252 51.0159 212.252 50.1419V48.6719Z" fill="white"/>
<path d="M214.423 38.144H204.572V40.3108H214.423V38.144Z" fill="white"/>
<path d="M225.901 42.5142H220.641C221.003 42.6463 221.322 42.8736 221.565 43.172C221.808 43.4704 221.966 43.8289 222.023 44.2097H225.901V42.5142Z" fill="white"/>
<path d="M220.642 42.514C220.393 42.4279 220.131 42.3844 219.868 42.3851C219.454 42.3779 219.045 42.4831 218.686 42.6894C218.326 42.8958 218.029 43.1956 217.826 43.5571H217.786V42.514H215.615V53.3236H217.786V46.0501C217.786 45.0915 218.06 44.5599 218.869 44.5599C219.55 44.5599 219.933 45.0472 219.933 45.8366V53.3236H222.099V45.0271C222.1 44.7568 222.074 44.487 222.023 44.2216C221.969 43.8387 221.811 43.4776 221.568 43.1769C221.325 42.8762 221.005 42.6471 220.642 42.514Z" fill="white"/>
<path d="M193.456 42.5142V49.7635C193.456 50.7221 193.178 51.2577 192.373 51.2577C191.692 51.2577 191.31 50.7664 191.31 49.977V44.2097H189.159V50.8026C189.159 52.7438 190.307 53.4486 191.394 53.4486C191.808 53.4564 192.217 53.3515 192.576 53.145C192.935 52.9386 193.231 52.6384 193.432 52.2766H193.476V53.3238H195.647V42.5142H193.456Z" fill="white"/>
<path d="M191.31 42.5142H183.641V44.2097H191.31V42.5142Z" fill="white"/>
</g>
<defs>
<clipPath id="clip0_1_2182">
<rect width="227.59" height="56" fill="white"/>
</clipPath>
</defs>
</svg>
